<mxfile host="app.diagrams.net" modified="2024-01-20T00:37:03.635Z" agent="Mozilla/5.0 (Windows NT 10.0; Win64; x64) AppleWebKit/537.36 (KHTML, like Gecko) Chrome/120.0.0.0 Safari/537.36 Edg/120.0.0.0" etag="AIR4zNyv7E8jvndWjefe" version="22.1.21" type="github">
  <diagram id="R2lEEEUBdFMjLlhIrx00" name="Page-1">
    <mxGraphModel dx="786" dy="441" grid="1" gridSize="10" guides="1" tooltips="1" connect="1" arrows="1" fold="1" page="1" pageScale="1" pageWidth="850" pageHeight="1100" math="0" shadow="0" extFonts="Permanent Marker^https://fonts.googleapis.com/css?family=Permanent+Marker">
      <root>
        <mxCell id="0" />
        <mxCell id="1" parent="0" />
        <mxCell id="gWlDJPw3F10zjXP-OmAI-19" style="edgeStyle=none;curved=0;rounded=0;orthogonalLoop=1;jettySize=auto;html=1;exitX=0.25;exitY=1;exitDx=0;exitDy=0;entryX=0.25;entryY=0;entryDx=0;entryDy=0;fontSize=12;startSize=8;endSize=8;endArrow=ERmany;endFill=0;" edge="1" parent="1">
          <mxGeometry relative="1" as="geometry">
            <mxPoint x="410" y="110" as="sourcePoint" />
            <mxPoint x="410" y="180" as="targetPoint" />
            <Array as="points">
              <mxPoint x="380" y="130" />
            </Array>
          </mxGeometry>
        </mxCell>
        <mxCell id="gWlDJPw3F10zjXP-OmAI-1" value="Empleados" style="rounded=0;whiteSpace=wrap;html=1;fontSize=16;" vertex="1" parent="1">
          <mxGeometry x="340" y="96" width="95" height="40" as="geometry" />
        </mxCell>
        <mxCell id="gWlDJPw3F10zjXP-OmAI-21" value="" style="edgeStyle=none;curved=1;rounded=0;orthogonalLoop=1;jettySize=auto;html=1;fontSize=12;startSize=8;endSize=8;startArrow=ERmany;startFill=0;endArrow=ERmany;endFill=0;" edge="1" parent="1" source="gWlDJPw3F10zjXP-OmAI-5" target="gWlDJPw3F10zjXP-OmAI-6">
          <mxGeometry relative="1" as="geometry" />
        </mxCell>
        <mxCell id="gWlDJPw3F10zjXP-OmAI-5" value="Ventas" style="rounded=0;whiteSpace=wrap;html=1;fontSize=16;" vertex="1" parent="1">
          <mxGeometry x="365" y="180" width="95" height="40" as="geometry" />
        </mxCell>
        <mxCell id="gWlDJPw3F10zjXP-OmAI-6" value="Productos" style="rounded=0;whiteSpace=wrap;html=1;fontSize=16;" vertex="1" parent="1">
          <mxGeometry x="532" y="152" width="95" height="40" as="geometry" />
        </mxCell>
        <mxCell id="gWlDJPw3F10zjXP-OmAI-22" value="" style="edgeStyle=none;curved=1;rounded=0;orthogonalLoop=1;jettySize=auto;html=1;fontSize=12;startSize=8;endSize=8;endArrow=ERmany;endFill=0;" edge="1" parent="1" source="gWlDJPw3F10zjXP-OmAI-7" target="gWlDJPw3F10zjXP-OmAI-5">
          <mxGeometry relative="1" as="geometry" />
        </mxCell>
        <mxCell id="gWlDJPw3F10zjXP-OmAI-7" value="Clientes" style="rounded=0;whiteSpace=wrap;html=1;fontSize=16;" vertex="1" parent="1">
          <mxGeometry x="177" y="180" width="95" height="40" as="geometry" />
        </mxCell>
        <mxCell id="gWlDJPw3F10zjXP-OmAI-20" style="edgeStyle=none;curved=1;rounded=0;orthogonalLoop=1;jettySize=auto;html=1;exitX=0.5;exitY=0;exitDx=0;exitDy=0;fontSize=12;startSize=8;endSize=8;endArrow=ERmany;endFill=0;" edge="1" parent="1" source="gWlDJPw3F10zjXP-OmAI-8" target="gWlDJPw3F10zjXP-OmAI-6">
          <mxGeometry relative="1" as="geometry" />
        </mxCell>
        <mxCell id="gWlDJPw3F10zjXP-OmAI-30" style="edgeStyle=none;curved=1;rounded=0;orthogonalLoop=1;jettySize=auto;html=1;exitX=1;exitY=0.5;exitDx=0;exitDy=0;entryX=0;entryY=0.5;entryDx=0;entryDy=0;fontSize=12;startSize=8;endSize=8;endArrow=none;endFill=0;" edge="1" parent="1" source="gWlDJPw3F10zjXP-OmAI-8" target="gWlDJPw3F10zjXP-OmAI-29">
          <mxGeometry relative="1" as="geometry" />
        </mxCell>
        <mxCell id="gWlDJPw3F10zjXP-OmAI-32" style="edgeStyle=none;curved=1;rounded=0;orthogonalLoop=1;jettySize=auto;html=1;exitX=0.5;exitY=1;exitDx=0;exitDy=0;fontSize=12;startSize=8;endSize=8;endArrow=none;endFill=0;" edge="1" parent="1" source="gWlDJPw3F10zjXP-OmAI-8" target="gWlDJPw3F10zjXP-OmAI-27">
          <mxGeometry relative="1" as="geometry" />
        </mxCell>
        <mxCell id="gWlDJPw3F10zjXP-OmAI-33" style="edgeStyle=none;curved=1;rounded=0;orthogonalLoop=1;jettySize=auto;html=1;exitX=0;exitY=1;exitDx=0;exitDy=0;entryX=1;entryY=0;entryDx=0;entryDy=0;fontSize=12;startSize=8;endSize=8;endArrow=none;endFill=0;" edge="1" parent="1" source="gWlDJPw3F10zjXP-OmAI-8">
          <mxGeometry relative="1" as="geometry">
            <mxPoint x="520.2132034355964" y="305.85786437626916" as="targetPoint" />
          </mxGeometry>
        </mxCell>
        <mxCell id="gWlDJPw3F10zjXP-OmAI-8" value="Proveedores" style="rounded=0;whiteSpace=wrap;html=1;fontSize=16;" vertex="1" parent="1">
          <mxGeometry x="539" y="250" width="95" height="40" as="geometry" />
        </mxCell>
        <mxCell id="gWlDJPw3F10zjXP-OmAI-42" style="edgeStyle=none;curved=1;rounded=0;orthogonalLoop=1;jettySize=auto;html=1;exitX=1;exitY=1;exitDx=0;exitDy=0;entryX=0;entryY=0.25;entryDx=0;entryDy=0;fontSize=12;startSize=8;endSize=8;endArrow=none;endFill=0;" edge="1" parent="1" source="gWlDJPw3F10zjXP-OmAI-23" target="gWlDJPw3F10zjXP-OmAI-1">
          <mxGeometry relative="1" as="geometry" />
        </mxCell>
        <mxCell id="gWlDJPw3F10zjXP-OmAI-23" value="&lt;font style=&quot;font-size: 12px;&quot;&gt;nombre&lt;/font&gt;" style="ellipse;whiteSpace=wrap;html=1;fontSize=16;" vertex="1" parent="1">
          <mxGeometry x="265" y="66" width="60" height="40" as="geometry" />
        </mxCell>
        <mxCell id="gWlDJPw3F10zjXP-OmAI-24" value="&lt;p style=&quot;line-height: 120%;&quot;&gt;&lt;font style=&quot;font-size: 12px;&quot;&gt;id_empleado&lt;/font&gt;&lt;/p&gt;" style="ellipse;whiteSpace=wrap;html=1;fontSize=16;" vertex="1" parent="1">
          <mxGeometry x="335" y="46" width="80" height="40" as="geometry" />
        </mxCell>
        <mxCell id="gWlDJPw3F10zjXP-OmAI-25" value="&lt;font style=&quot;font-size: 12px;&quot;&gt;teléfono&lt;/font&gt;" style="ellipse;whiteSpace=wrap;html=1;fontSize=16;" vertex="1" parent="1">
          <mxGeometry x="420" y="43" width="60" height="40" as="geometry" />
        </mxCell>
        <mxCell id="gWlDJPw3F10zjXP-OmAI-26" value="&lt;font style=&quot;font-size: 12px;&quot;&gt;teléfono&lt;/font&gt;" style="ellipse;whiteSpace=wrap;html=1;fontSize=16;" vertex="1" parent="1">
          <mxGeometry x="472" y="300" width="60" height="40" as="geometry" />
        </mxCell>
        <mxCell id="gWlDJPw3F10zjXP-OmAI-27" value="&lt;font style=&quot;font-size: 12px;&quot;&gt;nombre&lt;/font&gt;" style="ellipse;whiteSpace=wrap;html=1;fontSize=16;" vertex="1" parent="1">
          <mxGeometry x="539" y="300" width="60" height="40" as="geometry" />
        </mxCell>
        <mxCell id="gWlDJPw3F10zjXP-OmAI-28" value="&lt;font style=&quot;font-size: 12px;&quot;&gt;id_proveedor&lt;/font&gt;" style="ellipse;whiteSpace=wrap;html=1;fontSize=16;" vertex="1" parent="1">
          <mxGeometry x="609" y="300" width="75" height="40" as="geometry" />
        </mxCell>
        <mxCell id="gWlDJPw3F10zjXP-OmAI-29" value="&lt;font style=&quot;font-size: 12px;&quot;&gt;cuit&lt;/font&gt;" style="ellipse;whiteSpace=wrap;html=1;fontSize=16;" vertex="1" parent="1">
          <mxGeometry x="649" y="250" width="60" height="40" as="geometry" />
        </mxCell>
        <mxCell id="gWlDJPw3F10zjXP-OmAI-31" style="edgeStyle=none;curved=1;rounded=0;orthogonalLoop=1;jettySize=auto;html=1;exitX=1;exitY=1;exitDx=0;exitDy=0;entryX=0.382;entryY=-0.025;entryDx=0;entryDy=0;entryPerimeter=0;fontSize=12;startSize=8;endSize=8;endArrow=none;endFill=0;" edge="1" parent="1" source="gWlDJPw3F10zjXP-OmAI-8" target="gWlDJPw3F10zjXP-OmAI-28">
          <mxGeometry relative="1" as="geometry" />
        </mxCell>
        <mxCell id="gWlDJPw3F10zjXP-OmAI-34" value="&lt;font style=&quot;font-size: 12px;&quot;&gt;id_producto&lt;/font&gt;" style="ellipse;whiteSpace=wrap;html=1;fontSize=16;" vertex="1" parent="1">
          <mxGeometry x="492" y="92" width="75" height="40" as="geometry" />
        </mxCell>
        <mxCell id="gWlDJPw3F10zjXP-OmAI-41" style="edgeStyle=none;curved=1;rounded=0;orthogonalLoop=1;jettySize=auto;html=1;exitX=0;exitY=0.5;exitDx=0;exitDy=0;entryX=1;entryY=0;entryDx=0;entryDy=0;fontSize=12;startSize=8;endSize=8;endArrow=none;endFill=0;" edge="1" parent="1" source="gWlDJPw3F10zjXP-OmAI-35" target="gWlDJPw3F10zjXP-OmAI-6">
          <mxGeometry relative="1" as="geometry" />
        </mxCell>
        <mxCell id="gWlDJPw3F10zjXP-OmAI-35" value="&lt;font style=&quot;font-size: 12px;&quot;&gt;stock&lt;/font&gt;" style="ellipse;whiteSpace=wrap;html=1;fontSize=16;" vertex="1" parent="1">
          <mxGeometry x="642" y="122" width="60" height="40" as="geometry" />
        </mxCell>
        <mxCell id="gWlDJPw3F10zjXP-OmAI-39" style="edgeStyle=none;curved=1;rounded=0;orthogonalLoop=1;jettySize=auto;html=1;exitX=0.5;exitY=1;exitDx=0;exitDy=0;entryX=0.75;entryY=0;entryDx=0;entryDy=0;fontSize=12;startSize=8;endSize=8;endArrow=none;endFill=0;" edge="1" parent="1" source="gWlDJPw3F10zjXP-OmAI-36" target="gWlDJPw3F10zjXP-OmAI-6">
          <mxGeometry relative="1" as="geometry" />
        </mxCell>
        <mxCell id="gWlDJPw3F10zjXP-OmAI-36" value="&lt;font style=&quot;font-size: 12px;&quot;&gt;precio_unit&lt;/font&gt;" style="ellipse;whiteSpace=wrap;html=1;fontSize=16;" vertex="1" parent="1">
          <mxGeometry x="572" y="92" width="70" height="40" as="geometry" />
        </mxCell>
        <mxCell id="gWlDJPw3F10zjXP-OmAI-40" style="edgeStyle=none;curved=1;rounded=0;orthogonalLoop=1;jettySize=auto;html=1;exitX=0;exitY=0.5;exitDx=0;exitDy=0;fontSize=12;startSize=8;endSize=8;endArrow=none;endFill=0;" edge="1" parent="1" source="gWlDJPw3F10zjXP-OmAI-37" target="gWlDJPw3F10zjXP-OmAI-6">
          <mxGeometry relative="1" as="geometry" />
        </mxCell>
        <mxCell id="gWlDJPw3F10zjXP-OmAI-37" value="&lt;font style=&quot;font-size: 12px;&quot;&gt;descripcion&lt;/font&gt;" style="ellipse;whiteSpace=wrap;html=1;fontSize=16;" vertex="1" parent="1">
          <mxGeometry x="642" y="172" width="70" height="40" as="geometry" />
        </mxCell>
        <mxCell id="gWlDJPw3F10zjXP-OmAI-38" style="edgeStyle=none;curved=1;rounded=0;orthogonalLoop=1;jettySize=auto;html=1;exitX=1;exitY=1;exitDx=0;exitDy=0;entryX=0.358;entryY=-0.042;entryDx=0;entryDy=0;entryPerimeter=0;fontSize=12;startSize=8;endSize=8;endArrow=none;endFill=0;" edge="1" parent="1" source="gWlDJPw3F10zjXP-OmAI-34" target="gWlDJPw3F10zjXP-OmAI-6">
          <mxGeometry relative="1" as="geometry" />
        </mxCell>
        <mxCell id="gWlDJPw3F10zjXP-OmAI-43" style="edgeStyle=none;curved=1;rounded=0;orthogonalLoop=1;jettySize=auto;html=1;exitX=0.5;exitY=1;exitDx=0;exitDy=0;entryX=0.361;entryY=-0.042;entryDx=0;entryDy=0;entryPerimeter=0;fontSize=12;startSize=8;endSize=8;endArrow=none;endFill=0;" edge="1" parent="1" source="gWlDJPw3F10zjXP-OmAI-24" target="gWlDJPw3F10zjXP-OmAI-1">
          <mxGeometry relative="1" as="geometry" />
        </mxCell>
        <mxCell id="gWlDJPw3F10zjXP-OmAI-44" style="edgeStyle=none;curved=0;rounded=0;orthogonalLoop=1;jettySize=auto;html=1;exitX=0;exitY=1;exitDx=0;exitDy=0;fontSize=12;startSize=8;endSize=8;endArrow=none;endFill=0;entryX=1;entryY=0;entryDx=0;entryDy=0;" edge="1" parent="1" target="gWlDJPw3F10zjXP-OmAI-1">
          <mxGeometry relative="1" as="geometry">
            <mxPoint x="433.78679656440363" y="80.14213562373095" as="sourcePoint" />
            <mxPoint x="415" y="90" as="targetPoint" />
            <Array as="points">
              <mxPoint x="405" y="96" />
            </Array>
          </mxGeometry>
        </mxCell>
        <mxCell id="gWlDJPw3F10zjXP-OmAI-50" style="edgeStyle=none;curved=1;rounded=0;orthogonalLoop=1;jettySize=auto;html=1;exitX=1;exitY=0;exitDx=0;exitDy=0;entryX=0;entryY=1;entryDx=0;entryDy=0;fontSize=12;startSize=8;endSize=8;endArrow=none;endFill=0;" edge="1" parent="1" source="gWlDJPw3F10zjXP-OmAI-45" target="gWlDJPw3F10zjXP-OmAI-5">
          <mxGeometry relative="1" as="geometry" />
        </mxCell>
        <mxCell id="gWlDJPw3F10zjXP-OmAI-45" value="&lt;font style=&quot;font-size: 12px;&quot;&gt;id_venta&lt;/font&gt;" style="ellipse;whiteSpace=wrap;html=1;fontSize=16;" vertex="1" parent="1">
          <mxGeometry x="285" y="230" width="75" height="40" as="geometry" />
        </mxCell>
        <mxCell id="gWlDJPw3F10zjXP-OmAI-46" value="&lt;font style=&quot;font-size: 12px;&quot;&gt;fecha&lt;/font&gt;" style="ellipse;whiteSpace=wrap;html=1;fontSize=16;" vertex="1" parent="1">
          <mxGeometry x="365" y="230" width="55" height="40" as="geometry" />
        </mxCell>
        <mxCell id="gWlDJPw3F10zjXP-OmAI-49" style="edgeStyle=none;curved=1;rounded=0;orthogonalLoop=1;jettySize=auto;html=1;exitX=0;exitY=0;exitDx=0;exitDy=0;fontSize=12;startSize=8;endSize=8;endArrow=none;endFill=0;" edge="1" parent="1" source="gWlDJPw3F10zjXP-OmAI-47" target="gWlDJPw3F10zjXP-OmAI-5">
          <mxGeometry relative="1" as="geometry" />
        </mxCell>
        <mxCell id="gWlDJPw3F10zjXP-OmAI-47" value="&lt;font style=&quot;font-size: 12px;&quot;&gt;total&lt;/font&gt;" style="ellipse;whiteSpace=wrap;html=1;fontSize=16;" vertex="1" parent="1">
          <mxGeometry x="425" y="230" width="55" height="40" as="geometry" />
        </mxCell>
        <mxCell id="gWlDJPw3F10zjXP-OmAI-48" style="edgeStyle=none;curved=1;rounded=0;orthogonalLoop=1;jettySize=auto;html=1;exitX=0.5;exitY=0;exitDx=0;exitDy=0;entryX=0.333;entryY=0.958;entryDx=0;entryDy=0;entryPerimeter=0;fontSize=12;startSize=8;endSize=8;endArrow=none;endFill=0;" edge="1" parent="1" source="gWlDJPw3F10zjXP-OmAI-46" target="gWlDJPw3F10zjXP-OmAI-5">
          <mxGeometry relative="1" as="geometry" />
        </mxCell>
        <mxCell id="gWlDJPw3F10zjXP-OmAI-55" style="edgeStyle=none;curved=1;rounded=0;orthogonalLoop=1;jettySize=auto;html=1;exitX=0.5;exitY=1;exitDx=0;exitDy=0;fontSize=12;startSize=8;endSize=8;endArrow=none;endFill=0;" edge="1" parent="1" source="gWlDJPw3F10zjXP-OmAI-51" target="gWlDJPw3F10zjXP-OmAI-7">
          <mxGeometry relative="1" as="geometry" />
        </mxCell>
        <mxCell id="gWlDJPw3F10zjXP-OmAI-51" value="&lt;p style=&quot;line-height: 120%;&quot;&gt;&lt;font style=&quot;font-size: 12px;&quot;&gt;id_cliente&lt;/font&gt;&lt;/p&gt;" style="ellipse;whiteSpace=wrap;html=1;fontSize=16;" vertex="1" parent="1">
          <mxGeometry x="207" y="130" width="60" height="40" as="geometry" />
        </mxCell>
        <mxCell id="gWlDJPw3F10zjXP-OmAI-56" style="edgeStyle=none;curved=1;rounded=0;orthogonalLoop=1;jettySize=auto;html=1;exitX=1;exitY=1;exitDx=0;exitDy=0;entryX=0.25;entryY=0;entryDx=0;entryDy=0;fontSize=12;startSize=8;endSize=8;endArrow=none;endFill=0;" edge="1" parent="1" source="gWlDJPw3F10zjXP-OmAI-52" target="gWlDJPw3F10zjXP-OmAI-7">
          <mxGeometry relative="1" as="geometry" />
        </mxCell>
        <mxCell id="gWlDJPw3F10zjXP-OmAI-52" value="&lt;p style=&quot;line-height: 120%;&quot;&gt;&lt;font style=&quot;font-size: 12px;&quot;&gt;nombre&lt;/font&gt;&lt;/p&gt;" style="ellipse;whiteSpace=wrap;html=1;fontSize=16;" vertex="1" parent="1">
          <mxGeometry x="137" y="130" width="60" height="40" as="geometry" />
        </mxCell>
        <mxCell id="gWlDJPw3F10zjXP-OmAI-57" style="edgeStyle=none;curved=1;rounded=0;orthogonalLoop=1;jettySize=auto;html=1;exitX=1;exitY=0.5;exitDx=0;exitDy=0;entryX=0;entryY=0.5;entryDx=0;entryDy=0;fontSize=12;startSize=8;endSize=8;endArrow=none;endFill=0;" edge="1" parent="1" source="gWlDJPw3F10zjXP-OmAI-53" target="gWlDJPw3F10zjXP-OmAI-7">
          <mxGeometry relative="1" as="geometry" />
        </mxCell>
        <mxCell id="gWlDJPw3F10zjXP-OmAI-53" value="&lt;p style=&quot;line-height: 120%;&quot;&gt;&lt;font style=&quot;font-size: 12px;&quot;&gt;dni&lt;/font&gt;&lt;/p&gt;" style="ellipse;whiteSpace=wrap;html=1;fontSize=16;" vertex="1" parent="1">
          <mxGeometry x="107" y="180" width="60" height="40" as="geometry" />
        </mxCell>
        <mxCell id="gWlDJPw3F10zjXP-OmAI-54" value="&lt;p style=&quot;line-height: 120%;&quot;&gt;&lt;font style=&quot;font-size: 12px;&quot;&gt;telefono&lt;/font&gt;&lt;/p&gt;" style="ellipse;whiteSpace=wrap;html=1;fontSize=16;" vertex="1" parent="1">
          <mxGeometry x="127" y="230" width="60" height="40" as="geometry" />
        </mxCell>
        <mxCell id="gWlDJPw3F10zjXP-OmAI-58" style="edgeStyle=none;curved=1;rounded=0;orthogonalLoop=1;jettySize=auto;html=1;exitX=1;exitY=0;exitDx=0;exitDy=0;entryX=0.175;entryY=1.042;entryDx=0;entryDy=0;entryPerimeter=0;fontSize=12;startSize=8;endSize=8;endArrow=none;endFill=0;" edge="1" parent="1" source="gWlDJPw3F10zjXP-OmAI-54" target="gWlDJPw3F10zjXP-OmAI-7">
          <mxGeometry relative="1" as="geometry" />
        </mxCell>
      </root>
    </mxGraphModel>
  </diagram>
</mxfile>
